PathFileType	4	(X/Y/Z)	E:\3-PhD\Data\MocapData\ElaboratedData\009\pre\dynamicElaborations\RunA1\RunA1.trc
DataRate	CameraRate	NumFrames	NumMarkers	Units	OrigDataRate	DataStartFrame
200	200	5	54	mm	200	4.160000e+02
Frame#	Time	FHD			LBHD			RBHD			C7			T10			CLAV			LSHO			LUUPA			LMUPA			LDUPA			LLEP			LMEP			LRAD			LUL			LRFIN			RSHO			RUPA1			RMUPA			RDUPA			RLEP			RMEP			RRAD			RUL			RUFIN			RASI			USACR			LSACR			RSACR			LTHI1			LTHI2			LTHI3			LTHI4			LTIB1			LTIB2			LTIB3			LTIB4			LLMAL			LHEE			LMT1			LMT2			RTHI			RTHI2			RTHI3			RTHI4			RLFC			RTIB1			RTIB2			RTIB3			RTIB4			RLMAL			RHEE			RMT1			RMT2			RMT5		
		X1	Y1	Z1	X2	Y2	Z2	X3	Y3	Z3	X4	Y4	Z4	X5	Y5	Z5	X6	Y6	Z6	X7	Y7	Z7	X8	Y8	Z8	X9	Y9	Z9	X10	Y10	Z10	X11	Y11	Z11	X12	Y12	Z12	X13	Y13	Z13	X14	Y14	Z14	X15	Y15	Z15	X16	Y16	Z16	X17	Y17	Z17	X18	Y18	Z18	X19	Y19	Z19	X20	Y20	Z20	X21	Y21	Z21	X22	Y22	Z22	X23	Y23	Z23	X24	Y24	Z24	X25	Y25	Z25	X26	Y26	Z26	X27	Y27	Z27	X28	Y28	Z28	X29	Y29	Z29	X30	Y30	Z30	X31	Y31	Z31	X32	Y32	Z32	X33	Y33	Z33	X34	Y34	Z34	X35	Y35	Z35	X36	Y36	Z36	X37	Y37	Z37	X38	Y38	Z38	X39	Y39	Z39	X40	Y40	Z40	X41	Y41	Z41	X42	Y42	Z42	X43	Y43	Z43	X44	Y44	Z44	X45	Y45	Z45	X46	Y46	Z46	X47	Y47	Z47	X48	Y48	Z48	X49	Y49	Z49	X50	Y50	Z50	X51	Y51	Z51	X52	Y52	Z52	X53	Y53	Z53	X54	Y54	Z54	

416	2.075000	-2919.510112	1523.306114	352.451716	-3095.687757	1554.008404	265.187289	-3059.627023	1534.576171	389.289293	-3165.502240	1427.695093	312.106371	-3376.654064	1142.614759	331.379371	-3072.831009	1291.913559	282.397300	-3080.757575	1358.346598	150.523204	-3234.006700	1390.630158	46.524879	-3258.167458	1348.544212	33.006531	-3298.939001	1393.835761	25.442464	-3412.603490	1411.056290	-2.903110	-3434.631282	1406.893066	65.747420	-3600.252055	1236.810135	-59.086283	-3649.524377	1292.263791	-69.890725	-3622.571284	1207.894592	-124.280312	-3092.156618	1396.347227	426.441725	-3032.428261	1270.146893	529.525525	-2991.047912	1260.921303	513.721255	-2996.726897	1216.771062	554.879042	-2915.908932	1105.592032	569.103465	-2939.895577	1063.980142	509.399906	-2853.600134	1297.249055	396.166285	-2794.067172	1282.434491	419.279016	-2835.166828	1372.765262	415.184694	-3331.417360	904.399658	430.453783	-3427.346555	1073.526583	321.017169	-3445.600495	1047.900573	291.493548	-3445.661886	1045.440371	351.056564	-3225.407768	820.894899	123.015440	-3142.504492	803.629293	138.253695	-3122.356355	837.091388	167.429349	-3115.241860	747.835393	143.350643	-3024.949191	516.678035	203.988139	-3093.954778	502.599032	151.730641	-3060.624940	484.726327	172.258855	-3097.747213	411.192200	200.114300	-3211.087630	294.825362	178.317651	-3304.236011	270.295538	214.050825	-3095.185546	202.844494	252.318083	-3087.109239	207.226147	206.152592	-3519.070382	721.222374	477.457335	-3525.191710	655.700185	470.871137	-3499.940835	634.530700	460.083591	-3602.386704	615.950526	445.149047	-3659.595474	525.059543	429.798530	-3786.706643	341.790942	392.387100	-3890.396632	343.821128	425.891764	-3861.928715	306.978619	413.636067	-3890.841934	266.560324	382.689005	-4002.702808	249.985599	410.380560	-4064.710109	282.920780	355.917730	-3972.501633	85.089221	338.228138	-3978.711211	84.994845	380.539429	-4024.778274	104.472188	429.255475	
417	2.080000	-2890.866969	1526.731074	350.616155	-3067.035372	1557.032013	263.136474	-3031.048337	1537.743374	387.247623	-3136.777132	1430.599344	310.482783	-3347.768027	1146.436116	332.762513	-3044.357272	1294.919022	280.927787	-3052.681778	1360.437918	148.471827	-3207.141254	1390.043076	45.169240	-3230.988834	1347.618753	32.399261	-3272.341543	1392.270162	24.710615	-3386.539871	1407.525041	-3.100501	-3408.118554	1403.242799	65.632999	-3569.073996	1227.081670	-57.169930	-3620.055312	1280.816021	-68.529426	-3590.408320	1196.720568	-121.792696	-3062.200796	1398.999861	425.440977	-3007.111198	1269.892880	529.132902	-2965.958039	1259.070437	513.785811	-2973.933695	1215.358866	554.898971	-2897.582679	1101.315862	568.956767	-2923.186230	1060.439578	509.488389	-2828.371007	1288.612884	394.292656	-2769.706103	1271.723018	417.698312	-2807.094548	1363.309646	413.074367	-3300.072906	907.660027	429.977268	-3397.901063	1077.324850	323.008943	-3416.426822	1051.691215	293.632068	-3415.855395	1049.086945	353.192659	-3198.626952	822.155971	121.243401	-3115.720690	804.120613	135.149040	-3094.860333	837.385709	163.949778	-3088.974278	748.033458	139.987148	-2991.050819	514.668116	200.342654	-3058.971000	495.604646	148.220592	-3024.610265	480.108599	169.008461	-3057.429325	404.986469	198.255937	-3163.818710	281.541001	178.548307	-3255.333052	252.476478	214.808089	-3042.641046	197.822669	254.198968	-3034.973778	201.201932	207.854310	-3487.337189	724.061023	478.035820	-3493.790090	658.635725	470.742739	-3468.687003	637.422816	459.619608	-3570.797408	619.585238	446.390343	-3629.819903	529.409417	429.194121	-3762.153683	349.854445	392.364998	-3866.048711	355.187323	424.922193	-3838.474755	317.436498	413.121786	-3868.088359	277.524893	382.315305	-3980.316926	264.967454	409.089070	-4038.048893	302.818457	353.289671	-3962.386042	95.841315	336.838612	-3969.238037	95.895448	379.118408	-4015.086178	119.994211	426.187692	
418	2.085000	-2862.032064	1530.206640	348.845813	-3038.262732	1559.935108	261.273702	-3002.256394	1540.843725	385.395742	-3107.800914	1433.471324	308.982857	-3318.997270	1150.575460	333.648488	-3015.842532	1297.657976	279.750041	-3024.601770	1362.393264	146.453984	-3180.425721	1388.655174	43.572179	-3203.798585	1345.801589	31.704173	-3245.829176	1389.597340	23.574098	-3360.574044	1402.372315	-3.765698	-3381.817058	1398.323488	64.965396	-3536.984398	1215.159816	-55.026919	-3589.773470	1266.862379	-67.289207	-3557.032453	1183.006719	-118.897376	-3031.746071	1401.234972	424.943388	-2982.271911	1268.878909	528.895708	-2941.532633	1256.134153	513.903021	-2952.047881	1213.069992	555.097137	-2881.020342	1095.864661	568.824627	-2908.392442	1056.089079	509.521647	-2802.114545	1277.403631	393.062756	-2744.756291	1257.819240	417.008147	-2777.186914	1350.842042	411.713854	-3268.952701	911.492260	429.589548	-3368.724090	1081.410050	324.483541	-3387.410117	1055.737002	295.212247	-3386.384607	1053.038635	354.711632	-3172.088179	822.520316	119.346761	-3089.245765	803.449730	131.816762	-3067.531859	836.460728	160.178615	-3063.228203	746.980424	136.457135	-2958.587374	511.767518	196.671494	-3025.192194	487.907214	144.756719	-2990.004108	474.761292	165.814332	-3018.568471	398.439501	196.454649	-3117.948856	268.639448	178.800143	-3207.633780	235.586943	215.732960	-2992.190473	193.026780	255.827358	-2984.904254	195.289303	209.315098	-3455.203451	726.558746	478.589720	-3461.634517	661.244152	470.857593	-3436.552735	640.100978	459.663019	-3538.093905	622.292092	447.847594	-3598.201872	532.414218	429.000133	-3736.179411	357.465523	392.265281	-3840.160450	366.672886	423.687641	-3813.717485	327.935313	412.343020	-3844.202907	288.840960	381.464239	-3956.756341	280.892092	407.183085	-4010.111781	323.214566	350.142739	-3950.289546	108.791865	334.747445	-3957.774361	109.031291	376.990119	-4003.214333	137.382256	422.505960	
419	2.090000	-2833.017921	1533.663919	347.116842	-3009.384033	1562.691720	259.593026	-2973.254705	1543.834412	383.710059	-3078.560422	1436.298594	307.602089	-3290.344133	1154.952438	334.082474	-2987.289216	1300.106000	278.832289	-2996.518547	1364.215744	144.488711	-3153.832414	1386.510802	41.764836	-3176.559257	1343.153605	30.938741	-3219.364122	1385.869555	22.084939	-3334.639768	1395.661883	-4.803059	-3355.664649	1392.141625	63.858570	-3503.837075	1201.232393	-52.628799	-3558.518284	1250.574788	-66.068551	-3522.286532	1167.036847	-115.583271	-3000.791464	1402.992242	424.893050	-2957.878209	1267.242255	528.760156	-2917.778641	1252.287155	513.986262	-2930.993636	1210.111844	555.405144	-2866.098905	1089.591981	568.712201	-2895.315590	1051.256800	509.504570	-2774.987398	1263.715687	392.616050	-2719.453073	1240.910433	417.304338	-2745.689696	1335.359277	411.228555	-3238.044887	915.774669	429.305805	-3339.809179	1085.682094	325.509961	-3358.574443	1059.947077	296.297513	-3357.238426	1057.195394	355.690266	-3145.824703	822.123931	117.341597	-3063.134085	801.746633	128.293425	-3040.427737	834.439427	156.152882	-3038.053683	744.818850	132.815718	-2927.586190	508.071914	193.021399	-2992.728437	479.664891	141.421446	-2956.882110	468.800221	162.721219	-2981.286900	391.632766	194.729666	-3073.751493	256.224542	179.070314	-3161.469538	219.721077	216.848606	-2944.000083	188.391803	257.073256	-2937.091990	189.494998	210.414337	-3422.703032	728.621500	479.123524	-3428.766878	663.423378	471.189791	-3403.589498	642.462888	460.136050	-3504.402906	623.990330	449.450291	-3564.882235	534.021180	429.204132	-3708.840733	364.639292	392.020857	-3812.706768	378.259607	422.215424	-3787.648009	338.493384	411.300067	-3819.177966	300.538471	380.124272	-3931.984991	297.741847	404.728391	-3981.029738	344.045824	346.665300	-3935.983939	123.918040	331.884293	-3944.041734	124.362939	374.098833	-3988.839665	156.457487	418.297283	
420	2.095000	-2803.849808	1537.024322	345.414717	-2980.416201	1565.277122	258.077649	-2944.068044	1546.670486	382.174696	-3049.057206	1439.068022	306.327172	-3261.804795	1159.485843	334.123719	-2958.705829	1302.256023	278.124343	-2968.436262	1365.903965	142.596600	-3127.325720	1383.656703	39.790172	-3149.230316	1339.741007	30.126674	-3192.900117	1381.145872	20.310983	-3308.659339	1387.469046	-6.102281	-3329.586552	1384.701715	62.437770	-3469.477359	1185.513430	-49.947923	-3526.115172	1232.147089	-64.761394	-3486.007922	1149.125347	-111.838432	-2969.376445	1404.219816	425.223340	-2933.911617	1265.124100	528.679979	-2894.705840	1247.727462	513.972892	-2910.702741	1206.693548	555.749152	-2852.665986	1082.859345	568.620888	-2883.721241	1046.268924	509.440450	-2747.233493	1247.638953	393.084900	-2694.118007	1221.192628	418.667810	-2712.962860	1316.841526	411.762957	-3207.330509	920.361861	429.131226	-3311.131674	1090.037354	326.173827	-3329.924203	1064.224996	296.975133	-3328.376604	1061.450792	356.231198	-3119.890004	821.100355	115.242287	-3037.460469	799.145628	124.620495	-3013.620867	831.453508	151.900629	-3013.516741	741.700590	129.125246	-2898.059663	503.689417	189.416361	-2961.692707	471.047712	138.281011	-2925.310527	462.354429	159.748012	-2945.696536	384.652039	193.078914	-3031.491069	244.392798	179.356499	-3117.156669	204.960473	218.172552	-2898.232267	183.842878	257.828329	-2891.729128	183.815087	211.056527	-3389.855404	730.188089	479.652087	-3395.222902	665.103963	471.706205	-3369.847494	644.442196	460.947241	-3469.827517	624.670469	451.147819	-3530.013574	534.272930	429.799845	-3680.154662	371.424384	391.582503	-3783.636694	389.917442	420.553042	-3760.210901	349.127024	410.012487	-3792.934151	312.625747	378.321255	-3905.885088	315.430696	401.817641	-3950.806815	365.236792	343.041666	-3919.259373	141.080757	328.228464	-3927.813746	141.716837	370.429973	-3971.732516	176.961387	413.633590	
